<svg xmlns="http://www.w3.org/2000/svg" width="1200" height="1200" viewBox="0 0 900 900" preserveAspectRatio="xMidYMid meet" xmlns:v="https://vecta.io/nano"><circle cy="443.525" cx="445.087" r="421.661" fill="#f1f5f9"/><path d="M412 9.1c-9.1 1.5-27.1 4.1-34 4.9-9.1 1.1-21.5 3.7-23.9 4.9-1.1.6-3.2 1.1-4.6 1.1s-5 .7-7.8 1.5a333.95 333.95 0 0 1-10.7 3.1c-3 .9-6.2 2-7 2.5-1.9 1.2-2.4 1.3-9.5 3.4-3.3.9-7.3 2.3-9 3.1-1.6.7-5.5 2.1-8.5 3s-8.1 3-11.3 4.6c-3.1 1.5-6.2 2.8-6.9 2.8-.6 0-4 1.3-7.5 3-3.4 1.6-6.7 3-7.3 3-.5 0-3.2 1.3-5.8 3-2.7 1.6-5.4 3-6.1 3-.6 0-2.8 1-4.9 2.3-2 1.2-4.8 2.8-6.2 3.5-5.1 2.6-12.6 6.9-16.7 9.5-2.4 1.5-4.5 2.7-4.8 2.7s-2.4 1.3-4.7 3c-2.2 1.6-4.5 3-5 3-.8 0-6.9 4.3-11.3 7.8-.5.4-3.5 2.5-6.6 4.5-3.1 2.1-7.7 5.5-10.2 7.7s-5 4-5.6 4c-.5 0-1.4.6-1.8 1.2-.4.7-3.4 3.4-6.6 6-13 10.5-32.8 29.4-42.7 40.7l-9.1 10.3c-1.5 1.5-4.4 4.9-6.5 7.5l-5.6 6.2c-1 .8-1.8 2-1.8 2.6s-1.3 2.4-3 4c-1.6 1.6-3 3.4-3 4s-1.2 2.4-2.7 4.1c-3.5 3.7-21 29.8-24.3 35.9l-3.6 6.5c-4.9 8.5-13.107 27.26-20.4 40.5-.469.851-1.014 1.658-1.5 2.5-.515.892-1.072 1.764-1.5 2.7-1.049 2.292-1.721 4.738-2.6 7.1l-5.1 13.5c-1.095 2.782-2.36 5.497-3.4 8.3-.33.889-.612 1.796-.9 2.7l-4.3 14.2-1.8 5.5c-1.772 5.769-3.488 11.558-5 17.4-.334 1.292-.614 2.597-.9 3.9l-4.2 20.2c-.628 3.322-1.3 6.7-1.7 10l-4.6 34C5.6 428.2 5.4 455 7.3 455c3.7 0 18.994-3.617 28.2-6.5 2.57-.805 5.014-1.965 7.5-3 2.012-.838 4.035-1.657 6-2.6 2.447-1.174 4.833-2.472 7.2-3.8 2.842-1.594 5.556-3.409 8.4-5 1.314-.735 2.718-1.311 4-2.1.488-.301.954-.639 1.4-1 .807-.653 1.48-1.463 2.3-2.1 3.023-2.348 6.434-4.149 9.6-6.3 1.247-.847 2.464-1.738 3.7-2.6.865-.603 1.784-1.133 2.6-1.8 5.475-4.477 10.19-9.81 15.3-14.7l27.8-26.5c5.312-5.088 10.147-10.717 15.9-15.3.81-.645 1.763-1.09 2.6-1.7 1.283-.936 2.448-2.023 3.7-3 1.314-1.025 2.649-2.023 4-3 1.086-.786 2.198-1.537 3.3-2.3 2.129-1.473 4.153-3.114 6.4-4.4 10.794-6.177 22.383-10.868 33.8-15.8 2.568-1.11 5.147-2.212 7.8-3.1 1.672-.56 3.399-.938 5.1-1.4 1.732-.471 3.449-1.003 5.2-1.4 3.571-.81 7.196-1.357 10.8-2 3.296-.588 6.564-1.412 9.9-1.7 14.712-1.271 29.58-1.277 44.3-.1 3.299.264 6.538 1.04 9.8 1.6 3.338.573 6.704 1.02 10 1.8 2.063.489 4.077 1.165 6.1 1.8 3.017.948 6.015 1.957 9 3l11.5 4.2c3.782 1.516 7.463 3.274 11.2 4.9l6.7 2.9c2.418 1.003 4.864 1.941 7.3 2.9l11.8 4.6c3.366 1.199 6.681 2.68 10.2 3.3 8.212 1.447 16.665 1.161 25 .9 8.805-.275 17.684-.762 26.3-2.6 3.093-.66 6.051-1.858 9-3 7.14-2.764 14.054-6.081 21-9.3 6.385-2.958 12.765-5.938 19-9.2 1.865-.976 3.63-2.134 5.5-3.1 1.735-.897 3.511-1.716 5.3-2.5a134.25 134.25 0 0 1 7.4-3c2.967-1.095 5.964-2.116 9-3a82.44 82.44 0 0 1 5.6-1.4c6.492-1.406 12.971-3.18 19.6-3.6 3.632-.23 7.284.193 10.9.6 2.755.31 5.472.905 8.2 1.4 2.605.473 5.216.924 7.8 1.5 1.981.442 3.942.969 5.9 1.5a163.38 163.38 0 0 1 5.2 1.5c1.542.474 3.108.888 4.6 1.5 1.034.424 2.015.97 3 1.5.881.474 1.704 1.054 2.6 1.5 2.3 1.144 4.736 1.994 7.1 3l7 3c3.814 1.58 7.58 3.304 11.5 4.6 1.735.574 3.53.945 5.3 1.4 1.597.411 3.163.996 4.8 1.2 11.643 1.45 23.539 1.401 35.2.1 2.821-.315 5.531-1.278 8.3-1.9l6.8-1.5 3.8-.9c2.295-.521 4.56-1.249 6.9-1.5 6.33-.68 12.831-1.111 19.1 0 1.433.254 2.733 1 4.1 1.5l4.1 1.5c1.556.533 3.157.932 4.7 1.5 3.968 1.461 7.857 3.137 11.7 4.9 2.032.932 4 2 6 3l6 3 6 3c2.525 1.321 5.028 2.683 7.5 4.1 1.686.966 3.333 2 5 3l5 3 5 3c1.667 1 3.292 2.073 5 3 4.01 2.176 8.254 3.893 12.3 6 3.11 1.619 6.222 3.25 9.2 5.1.448.278.883.577 1.3.9 6.859 5.309 13.662 10.773 19.7 17 1.732 1.787 3.259 3.771 4.7 5.8.477.671.786 1.457 1.3 2.1 6.857 8.581 14.562 16.716 23.5 23.1.607.433 1.342.649 2 1 1.725.921 3.219 2.365 5.1 2.9 2.599.739 5.674 1.49 8.1.3 9.094-4.46 13.226-15.613 17.7-24.7 1.63-3.311 2.661-6.949 3.2-10.6 2.887-19.555 2-52 0-59.3A127.07 127.07 0 0 1 870 324c-2.2-12.5-6.2-26.5-9.6-33.3-.8-1.6-1.4-3.5-1.4-4.2s-.6-2.6-1.4-4.2c-.8-1.5-2.8-6.2-4.6-10.3l-4.1-9-3.6-8.5c-.79-1.838-1.502-3.712-2.4-5.5-1.206-2.402-2.682-4.658-4-7l-6.1-11c-1.381-2.365-2.896-4.649-4.3-7l-2.9-5a282.3 282.3 0 0 0-5-8c-1.137-1.753-2.315-3.479-3.5-5.2l-7.6-10.8c-.522-.786-.971-1.619-1.5-2.4-.949-1.402-2-2.733-3-4.1s-2.049-2.699-3-4.1-1.709-2.928-2.7-4.3c-3.464-4.8-7.476-9.182-11.3-13.7l-6.6-7.6c-2.417-2.819-6-6.7-7.2-8.5-1.2-1.7-5.9-6.7-10.3-11-4.5-4.3-10.2-9.9-12.8-12.6-2.6-2.6-5.1-4.7-5.6-4.7s-3.9-2.8-7.5-6.3c-3.7-3.4-7.171-6.25-10.9-9.2-2.635-2.085-5.402-3.998-8.1-6l-15.2-11.3c-9.51-6.647-19.3-12.888-29.1-19.1-2.805-1.778-5.632-3.524-8.5-5.2-1.714-1.001-3.47-1.927-5.2-2.9-3.006-1.69-5.898-3.594-9-5.1-.713-.346-1.465-.604-2.2-.9-2.096-.844-4.261-1.526-6.3-2.5-1.899-.907-3.638-2.12-5.5-3.1-3.285-1.729-6.626-3.352-10-4.9-2.307-1.059-4.666-2.002-7-3-2.499-1.069-4.955-2.246-7.5-3.2-1.313-.492-2.667-.867-4-1.3s-2.687-.808-4-1.3c-2.545-.954-4.959-2.236-7.5-3.2-4.435-1.682-9.1-3-13.5-4.5s-10.7-3.5-14-4.5c-3.3-.9-7.9-2.3-10.3-3.1-2.3-.8-5.2-1.4-6.3-1.4s-2.9-.5-3.9-1c-1-.6-3.8-1.2-6.1-1.5s-4.6-.8-5.1-1.1c-1.1-.7-3.6-1.1-13.3-2.4-3.8-.5-10.8-1.6-15.5-2.4l-13.5-2.1c-8.9-1-78.8-1.3-84.5-.4zm-19.8 32.3c1.6 3.6.4 5.6-3.2 5.6-3.4 0-4.5-1.7-3.6-5.5.9-3.4 5.2-3.5 6.8-.1zm-17.6 18.2c2.8 2.2 3.4 3.3 3.4 6.4 0 4.1-2.9 7-7 7-1.1 0-3.2-.7-4.5-1.6-3.3-2.2-3.5-8.7-.3-12.1 2.8-2.9 4.1-2.9 8.4.3zm109 13.9c2.6 1.7 3.7 6.6 2.4 10.1-2.9 7.6-10.1 7.2-15.3-.7-1.6-2.3-1.6-2.8-.2-3.9.8-.7 1.5-1.7 1.5-2.3 0-4 7.5-6.1 11.6-3.2zm54.3 8.9c1.2 1.8 2.1 4.3 2.1 5.5 0 1.5.6 2.1 2.3 2.1 1.2.1 3.5 1.2 5.1 2.5 2.7 2.1 2.9 2.6 1.8 4.9-.7 1.5-2.3 2.8-3.9 3.2-1.5.3-3.3.7-3.9.9-.5.1-1.9 2.9-3 6-1 3.2-2.5 6-3.2 6.3-1.9.7-6.2-3.7-6.2-6.3 0-2.8-3.3-5.8-6.8-6.1-2.8-.3-6.2-3.6-6.2-5.9 0-2 4.9-5.5 7.6-5.5 1.8 0 2.9-1.1 4.5-4.3 1.2-2.3 2.6-4.8 3.1-5.5 1.8-2.2 4.6-1.3 6.7 2.2zm-216.5 22.9c1 3.8-3.4 6.3-6.2 3.5-.8-.8-.8-1.7 0-3.2 2.1-4 5.1-4.2 6.2-.3zm-103.8 2.2c1.5 2.3 1.5 2.7 0 5.1-2.1 3.2-3.9 3.8-6.5 2.5-2.8-1.6-3.6-4.8-1.7-7.6 2.2-3.3 6-3.3 8.2 0zm417.4 26c1.088.257 2 1 3 1.5s2.025.953 3 1.5c.823.461 1.641.939 2.4 1.5 3.762 2.782 7.631 5.584 10.6 9.2.853 1.038 1.375 2.31 2 3.5 1.789 3.405 4.077 6.666 5 10.4 2.178 8.807 2.06 18.189 1 27.2-.291 2.474-.954 4.939-2 7.2-2.993 6.469-6.788 12.837-12 17.7-3.298 3.077-7.5 5.156-11.7 6.8-5.979 2.341-12.388 3.858-18.8 4.2-4.422.236-8.952-.251-13.2-1.5-2.96-.871-5.864-2.206-8.3-4.1-7.485-5.817-14.424-13.041-18.5-21.6-2.87-6.027-3.307-13.031-3.6-19.7-.22-5.017-.019-10.183 1.4-15 .775-2.631 2.354-4.969 3.8-7.3 1.371-2.209 3.042-4.218 4.6-6.3.755-1.009 1.418-2.1 2.3-3 2.956-3.014 6.419-5.511 9.9-7.9 1.306-.896 2.684-1.691 4.1-2.4 1.456-.729 2.904-1.577 4.5-1.9 9.965-2.017 20.605-2.336 30.5 0zm-248.8 7.2c2.5 2.9 2.9 5.3 1.3 8.2-1.6 3.2-5.3 4.4-8.7 2.7-3-1.5-3.7-7.9-1.2-10.7 2.1-2.4 6.6-2.5 8.6-.2zm90.3 2.5c4.6 2.1 4.2 8.2-.5 8.8-4 .6-6.1-.2-7.2-2.5-.9-1.9-.8-2.9.6-5 1.8-2.8 3.3-3.1 7.1-1.3zm-225.9 2.3c1.238.047 2.397.773 3.4 1.5 4.281 3.103 10.228 6.526 10.6 11.8.824 11.694-7.98 27.653-19.6 29.2-8.619 1.148-15.929-9.265-19.7-17.1-1.056-2.195-.579-4.881-.3-7.3a12.36 12.36 0 0 1 1-3.6c1.211-2.71 2.475-5.655 4.8-7.5 5.484-4.351 12.805-7.265 19.8-7zm173.5 61.6c3 1.5 3.9 5 2.1 7.6-1.9 3.1-6.5 3.1-8.6.1-2-2.9-2-4.7.1-7 1.8-2.1 3.6-2.3 6.4-.7zm-131.9 5.6c2.3 2 2.4 8.5.3 10.3-2.4 2-7.7 1.4-9.7-1.1-2.3-2.8-2.3-5 .3-8.3 2.4-3 6.3-3.4 9.1-.9zm-124.2.8c5 2.6 5.1 10.7.3 14.5-3.5 2.7-7.8 2.6-10.8-.5-3.6-3.5-3.4-8.2.6-12.3 3.5-3.5 5.6-3.9 9.9-1.7zm569.8 5.7c.3 2.8 3.6 6 9.1 9 3.5 1.9 4 5.4 1.1 6.8-7.8 3.6-8.6 4.5-10.7 11.5-.6 2.2-1.4 3-3.2 3-1.3 0-2.7-.7-3.1-1.5-3.8-8.2-4.7-9.3-8.3-10.5-5-1.7-6.7-3.3-6.7-6.1 0-1.9.7-2.6 3-3 1.6-.4 3.5-1.3 4.1-2 .6-.8 1.7-1.4 2.3-1.4.7 0 2.3-2.1 3.5-4.6 2.1-4.1 2.6-4.5 5.4-4.2 2.6.2 3.3.8 3.5 3zM548 222c1.1 1.1 2 3.3 2 5 0 6.1-7.7 9.3-12 5-1.6-1.6-1.8-2.4-.8-5.2 2-6.4 7-8.6 10.8-4.8zm-148.9 5.3c5.4 4.5 4.5 9.2-2.4 12.3l-3.8 1.8-2.5-2.9c-3.1-3.6-3.1-8.1-.1-11 2.8-2.9 5.5-3 8.8-.2zm135.5 30.2c1.8 4.4 1.7 5.5-.6 8.4-1.5 1.7-2.6 2.2-4.5 1.7-3.3-.8-6.7-6.3-5.4-8.7 3.2-6 8.3-6.7 10.5-1.4zm-399.1 5.1c3.725.61 3.328 6.812 5.5 9.9 1.019 1.449 2.209 2.786 3.5 4 3.221 3.028 10.513 3.68 10.5 8.1-.011 3.52-5.586 4.286-8.4 6.4-1.791 1.345-4.036 2.223-5.4 4-.829 1.08-1.042 2.517-1.5 3.8-.588 1.648-.651 3.53-1.6 5-.998 1.547-2.269 3.508-4.1 3.7-1.456.153-2.778-1.152-3.8-2.2-.875-.897-1.261-2.169-1.8-3.3-.528-1.106-.74-2.367-1.4-3.4-1.612-2.525-3.744-4.749-6.1-6.6-2.969-2.332-8.348-2.059-9.9-5.5-.701-1.556.078-3.633 1.1-5 1.572-2.103 4.768-2.267 6.9-3.8 2.758-1.984 4.994-4.606 7.5-6.9 2.993-2.741 4.995-8.856 9-8.2zm299 4.6c3.3 1.5 4.1 4.9 2 8.2-2.1 3.2-5.3 3.3-8.8.3-6.3-5.3-.9-12 6.8-8.5zm-193.8 2.5c2.9 3.3 2.9 4.6.1 8.3-2.6 3.6-6.1 3.9-9.4.7-3-2.8-3-6.2-.1-9.3s6.6-3.1 9.4.3zM658 284c2.4 2.4 2.5 3.8.4 6.8-1.6 2.3-5.7 2.9-8.3 1.3-.9-.6-1.5-2.5-1.5-4.6 0-5.6 5.4-7.5 9.4-3.5zm126 6c2.4 2.4 2.5 3.8.4 6.8-3.4 4.9-11.7.8-9.8-5 1.3-4.3 6-5.2 9.4-1.8zm18.2 32.7c3.8 3.5.6 12.3-4.6 12.3-2.8 0-6.6-3.9-6.6-6.9 0-5.6 7.2-9.1 11.2-5.4zM83.4 360.2c2.3 3.3 2 5.6-1.3 8.9-2 2-3.5 2.7-4.8 2.3-2.8-1-7.3-5.6-7.3-7.4 0-1.7 4.5-6.4 7-7.2 2-.7 4.5.7 6.4 3.4z" fill="#2563eb"/><path d="M286.5 411.5c-11.9 2.4-22.5 7.2-30.7 13.8-2 1.6-4.4 2.7-5.2 2.4s-1.9-3-2.6-6.1c-.6-3.2-1.9-6.1-2.9-6.8-1.4-1-6.1-1.2-18.7-.8l-16.9.5V470v55.5l21.9.3c15.3.2 22.3-.1 23.2-.9 1.1-.9 1.4-7.6 1.4-35.8 0-19 .4-35.2.9-35.9 1-1.6 16.2-3.6 20.4-2.6 1.7.3 3.2 1.5 3.8 3.1.5 1.3.9 17.6.9 36.2 0 27.5.3 34.1 1.4 35 .9.8 7.9 1.1 23.2.9l21.9-.3.3-46c.2-41 .1-46.5-1.4-50.5-3.8-10.2-11.1-15.8-23.5-17.9-7.7-1.3-9.4-1.3-17.4.4zm104.5 0c-16 2.1-24.8 5.5-32.6 12.7-4.3 4-5.5 5.7-9 12.8-3.3 7-5.4 19.4-5.4 32.7 0 11.7 1.9 23.3 4.6 28.6.8 1.6 1.4 3.3 1.4 3.7 0 1.5 5 8.3 8.5 11.6 10.4 10 26 14.4 50 14.4 18.3-.1 43.6-3.9 46.9-7.1.6-.5 1.8-.9 2.8-.9 3.2 0 3.9-3.3 2.8-12.2-1.2-9.7-2.5-16.6-3.3-17.5-.3-.3-6.3 0-13.2.6-20.1 1.8-37.2 1.4-42.2-.8-4.5-2.1-7.9-6.2-6.9-8.6.4-1.3 3.4-1.5 18.3-1.5 24.6 0 35.2-2 43.1-7.9 11.9-8.9 11.4-35-1-48.2-6.8-7.2-16.1-10.7-34.8-12.9-10.5-1.2-17.8-1.1-30 .5zm27 31.1c2 2 2.8 6.9 1.6 10.4l-1.1 3.5-12.4.3-12.4.3.6-5.3c.5-4.3 1.3-5.9 3.8-8.2 3-2.7 3.5-2.8 11-2.4 4.3.2 8.3.8 8.9 1.4zm92-31.1c-11.2 1.8-17.2 3.8-22.4 7.5-9 6.5-12 13.7-11.4 27.2.9 19.6 9.2 28.3 33.4 34.9l18.8 5c12 3.3 14.6 4.4 14.6 6.2 0 3.5-2.1 3.7-32.2 3.7-34 0-31.8-.6-31.8 9.3 0 3-.5 7.8-1 10.8-.6 3.2-.7 5.6-.1 6.2 3.9 3.9 59.7 7.3 77.4 4.6 9-1.3 17.6-4.2 22.7-7.5 13.2-8.7 16.1-35.7 5.3-49.1-5.7-7.2-22.2-13.9-47.3-19.3-10.8-2.3-15.1-4.5-13.5-7 .4-.6 10.4-1 29-1 24.4 0 28.6-.2 29.9-1.6.9-.8 1.6-2.1 1.6-2.9 0-.7.5-5.9 1.1-11.5.5-5.7.6-10.7.2-11.1-1.9-1.9-44.9-6.1-59.3-5.8-3.6.1-10.3.7-15 1.4zm137 0c-20.3 2.6-31.2 8.2-38.7 19.8-8.9 13.9-10.8 44.7-4.2 66.5 6.3 21 24.3 30.2 59.1 30.2 24.5 0 39.5-4.4 49-14.3 4.1-4.3 5.4-6.4 8.8-14.2 4.4-10.1 5.5-38.6 2.1-52.5-4.4-18.1-12.8-27.6-29-32.6-5.7-1.8-25.8-4.4-32.6-4.3-2.7.1-9.3.7-14.5 1.4zm21.7 32.2c5.3 2.5 6.5 6.4 7.1 22.2.6 15.6-.7 23.2-4.6 27.3-2.2 2.4-3.4 2.8-8.2 2.8-11.2 0-13-3.6-13-26.4 0-19.7 1-23.5 6.8-25.9 4.9-2 7.7-2 11.9 0z" fill="#0c0a09"/><path d="M889.3 424.2c-.6.7-2.7 4.4-4.8 8.3-2.1 3.8-7.7 12.2-12.5 18.5s-9.1 12.2-9.6 13.1-4.6 5.6-9 10.5c-4.5 4.9-10.1 11.3-12.4 14.3-4.8 6.1-25.967 27.47-40 40.1-1.815 1.633-3.811 3.053-5.7 4.6l-8.3 6.9c-1.785 1.452-3.497 3.007-5.4 4.3-1.494 1.016-3.137 1.794-4.7 2.7-1.37.794-2.769 1.542-4.1 2.4-2.231 1.438-4.319 3.088-6.5 4.6l-5.3 3.6c-.407.291-.778.632-1.2.9-2.102 1.334-4.379 2.374-6.6 3.5-5.12 2.595-10.266 5.145-15.5 7.5-4.347 1.956-8.609 4.216-13.2 5.5-14.124 3.95-28.936 4.873-43.5 6.6-12.791 1.517-25.848.887-38.5 3.3-3.418.652-6.717 1.846-10 3-5.869 2.063-11.585 4.544-17.3 7-4.139 1.779-7.897 4.645-12.3 5.6-3.648.791-7.476.263-11.2 0-10.646-.752-21.076-3.486-31.7-4.5-14.12-1.348-28.407-3.706-42.5-2.1-6.919.789-13.484 3.526-20.1 5.7-.812.267-1.604.588-2.4.9l-18.6 7.6c-3.322 1.416-6.598 2.938-9.9 4.4l-10.2 4.5c-3.492 1.519-7.057 2.872-10.5 4.5-.917.433-1.81.915-2.7 1.4-3.068 1.671-6.069 3.462-9.1 5.2l-10.6 6.1c-1.246.746-2.47 1.529-3.7 2.3l-8.7 5.5-15.6 9.6c-3.698 2.194-7.393 4.401-11.2 6.4-1.703.894-3.42 1.772-5.2 2.5-1.434.587-2.928 1.014-4.4 1.5l-4.7 1.5c-3.18.938-6.339 2.002-9.6 2.6-21.019 3.857-42.483 4.792-63.8 6.3-9.319.659-18.702.297-28 1.2-4.195.407-8.33 1.29-12.5 1.9l-13.5 1.9c-3.856.437-7.747.535-11.6 1-3.449.416-6.843 1.251-10.3 1.6-7.769.784-15.592 1.215-23.4 1.1-20.056-.296-40.098-2.097-60-4.6-1.914-.241-3.806-.636-5.7-1-2.241-.431-4.471-.911-6.7-1.4-6.682-1.466-13.196-5.312-20-4.6-1.023.107-2.609.289-2.8 1.3-.402 2.131 2.801 3.352 4.5 4.7 2.306 1.83 5.028 3.067 7.6 4.5 2.826 1.575 5.699 3.067 8.6 4.5 1.912.945 3.898 1.735 5.8 2.7 6.958 3.532 13.652 7.56 20.5 11.3 2.827 1.544 5.575 3.249 8.5 4.6 2.012.929 4.17 1.512 6.2 2.4 3.264 1.428 6.464 3.009 9.6 4.7.75.404 1.433.929 2.2 1.3 2.508 1.213 5.19 2.026 7.8 3l8.3 3c1.589.535 3.187 1.042 4.8 1.5 5.693 1.616 11.467 2.932 17.2 4.4 2.6.666 5.141 1.637 7.8 2 20.844 2.848 42.159 3.312 63.1 1.3 6.619-.636 12.966-2.968 19.5-4.2 3.484-.657 7.003-1.115 10.5-1.7 2.702-.452 5.43-.783 8.1-1.4 4.532-1.048 8.943-2.566 13.4-3.9l6.5-2c2.071-.653 4.108-1.419 6.2-2 1.55-.431 3.099-.935 4.7-1.1 1.36-.14 3.188-.918 4.1.1 1.831 2.043.954 6.011-.7 8.2-4.426 5.858-13.561 5.71-20.6 7.8-2.093.622-4.276.891-6.4 1.4-3.852.923-7.65 2.066-11.5 3-4.582 1.112-9.141 2.381-13.8 3.1-16.631 2.567-33.472 4.241-50.3 4.3-13.207.046-26.508-.725-39.5-3.1-12.431-2.273-24.49-6.374-36.4-10.6-4.533-1.608-8.872-3.721-13.3-5.6-4.839-2.053-9.758-3.932-14.5-6.2-3.847-1.84-7.56-3.95-11.3-6l-14.5-8.2-11.2-6.2-8.9-5.1c-1.691-.949-3.445-1.789-5.1-2.8-2.541-1.551-4.928-3.341-7.4-5l-12.9-8.6c-3.913-2.486-7.489-8.627-11.9-7.2-2.032.658-2.668 3.771-2.5 5.9.248 3.135 3.319 5.343 5 8l5.7 8.9c3.178 4.837 6.244 9.758 9.7 14.4 12.616 16.947 25.608 33.722 40.2 49 20.198 21.148 41.808 41.15 65.2 58.7 20.666 15.505 42.47 29.913 65.9 40.8 38.955 18.101 80.32 31.877 122.5 40 31.292 6.026 63.722 9.662 95.4 6.2 63.696-6.96 125.982-27.726 184.6-53.6 12.51-5.522 23.535-13.946 35-21.4 3.837-2.495 7.617-5.082 11.3-7.8 12.873-9.499 25.793-19.015 37.7-29.7 17.403-15.617 33.444-32.732 49.1-50.1 1.014-1.125 1.952-2.318 2.9-3.5 3.165-3.949 6.288-7.934 9.3-12 1.58-2.133 3.064-4.335 4.6-6.5l12.1-17c2.087-3.11 3.999-6.334 6-9.5 2.065-3.267 4.297-6.435 6.2-9.8 9.216-16.298 17.35-33.202 25.2-50.2 2.655-5.75 5.076-11.608 7.4-17.5 1.173-2.972 2.263-5.978 3.3-9 1.136-3.31 2.278-6.624 3.2-10 7.566-27.7 15.2-54.5 19.1-84 2.1-16 4.2-75.8 2.8-79-1.3-2.7-3.4-3.2-4.9-1.3zM833 600.3c1.259 1.555-1.898 3.53-3 5.2-.918 1.391-1.957 2.7-3 4-1.923 2.397-4 4.667-6 7l-6 7c-2.448 2.747-4.902 5.495-7.5 8.1-14.89 14.929-30.669 28.949-46.3 43.1-3.852 3.487-7.596 7.113-11.7 10.3-2.008 1.56-4.196 2.873-6.3 4.3l-9.2 6.2-7.4 4.7-4.7 2.8c-1.726 1.012-3.432 2.064-5.2 3-2.029 1.074-4.105 2.062-6.2 3-2.073.928-4.187 1.766-6.3 2.6-4.043 1.596-7.982 3.551-12.2 4.6-16.37 4.07-33.337 5.948-50.2 6.4-7.284.195-18.484 4.888-21.8-1.6-1.069-2.092 1.951-4.431 3.7-6 15.883-14.247 38.728-17.935 57.8-27.5 10.276-5.154 20.038-11.336 30.5-16.1 2.439-1.111 4.988-1.964 7.5-2.9l5.3-1.9 8.6-3.1c2.113-.8 4.246-1.558 6.3-2.5 8.823-4.046 17.354-8.717 25.8-13.5 3.059-1.733 6.032-3.615 9-5.5 1.686-1.071 3.348-2.178 5-3.3 5.148-3.498 10.36-6.915 15.3-10.7 3.831-2.936 7.468-6.121 11.1-9.3 5.539-4.848 9.937-11.198 16.3-14.9 3.271-1.903 8.419-6.441 10.8-3.5zM533.6 739.9c2.5.23 4.924.983 7.4 1.4 3.821.644 7.679 1.058 11.5 1.7 2.843.478 5.72.837 8.5 1.6 4.79 1.314 14.478.156 14 5.1-.679 7.02-13.892 2.502-20.9 3.3-7.57.862-15.261.504-22.8 1.6-3.649.531-7.22 1.515-10.8 2.4-4.058 1.004-8.083 2.143-12.1 3.3-2.979.858-6.015 1.565-8.9 2.7-12.5 4.915-24.312 11.448-36.2 17.7-2.642 1.39-5.183 2.964-7.8 4.4l-12 6.4c-3.967 2.032-8.02 3.894-12 5.9-2.01 1.013-3.968 2.132-6 3.1-2.628 1.252-5.314 2.379-8 3.5-2.748 1.147-5.461 2.403-8.3 3.3-4.672 1.476-9.401 3.339-14.3 3.4-1.772.022-4.344.451-5.2-1.1-.79-1.431.546-3.443 1.7-4.6 1.281-1.284 3.418-1.221 5.1-1.9 2.866-1.156 5.723-2.345 8.5-3.7 4.022-1.961 7.914-4.182 11.8-6.4 3.376-1.927 6.728-3.901 10-6 2.482-1.593 4.916-3.263 7.3-5 2.419-1.763 4.725-3.678 7.1-5.5l10-7.6 10.3-7.5c4.12-3.04 7.943-6.511 12.3-9.2.761-.47 1.606-.788 2.4-1.2 1.747-.907 3.425-1.948 5.2-2.8 4.766-2.289 9.615-4.437 14.6-6.2 2.288-.809 4.597-1.659 7-2 10.099-1.431 20.443-1.036 30.6-.1z" fill="#c2410c"/><path d="M21 475.6c-5.934 2.166-11.427 7.333-13.5 13.3-4.421 12.724 2.8 26.811 5 40.1.806 4.869 1.945 9.678 3 14.5l3 13a282.38 282.38 0 0 0 3 11c.841 2.851 1.784 5.672 2.7 8.5l3.3 10c5.69 15.615 9.858 32.104 18.5 46.3 1.536 2.523 3.389 4.994 5.8 6.7 7.367 5.213 16.814 6.566 25.2 9.9l8.7 3.5c2.353.904 4.721 1.768 7.1 2.6.896.313 1.79.632 2.7.9 5.777 1.703 11.671 2.984 17.5 4.5 6.338 1.649 12.553 3.847 19 5 15.626 2.796 31.526 4.565 47.4 4.6 28.187.062 56.585-2.154 84.2-7.8 2.881-.589 5.621-1.736 8.4-2.7 10.722-3.721 22.917-4.964 31.9-11.9 3.257-2.515 7.698-6.028 7.1-10.1-.98-6.67-10.121-9.029-15.9-12.5-2.124-1.276-4.491-2.103-6.8-3-4.952-1.924-10.026-3.526-15.1-5.1-3.507-1.088-7.052-2.055-10.6-3-1.195-.318-2.411-.56-3.6-.9-6.668-1.909-13.448-3.613-19.8-6.4-1.613-.708-3.08-1.711-4.6-2.6-1.446-.846-2.996-1.548-4.3-2.6-9.709-7.832-17.055-18.208-25.7-27.2-10.439-10.858-19.422-23.436-31.6-32.3-7.798-5.676-17.285-8.564-25.9-12.9l-40.9-20.8c-2.424-1.289-4.84-2.598-7.2-4-7.974-4.738-15.202-10.756-23.5-14.9-10.042-5.015-20.545-9.454-31.5-11.9-7.505-1.676-15.776-4.436-23-1.8z" fill="#ea580c"/></svg>