<svg xmlns="http://www.w3.org/2000/svg" xmlns:xlink="http://www.w3.org/1999/xlink" viewBox="-40.96 -40.96 593.92 593.92" width="64" height="64" fill="#000000" stroke="#000000" stroke-width=".005" xmlns:v="https://vecta.io/nano"><style><![CDATA[.B{fill:#fafaf9}.C{fill:#1d4ed8}.D{fill:#ea580c}.E{fill:#f97316}.F{fill:#0c0a09}.G{fill:#2563eb}.H{stroke-linecap:round}]]></style><g stroke="#e7e5e4" stroke-linejoin="round" stroke-width="16.384"><path d="M88.277 0h15.68v15.994h-15.68z" class="C"/><use xlink:href="#B" class="B"/><path d="M32.137 63.973h447.83v327.881H32.137z" class="D"/><path d="M32.137 63.973h223.915v327.881H32.137z" class="E"/><use xlink:href="#C" class="C"/><path d="M399.998 143.946c26.5 0 47.982 21.482 47.982 47.982s-21.483 47.982-47.982 47.982m-287.892-.001c-26.5 0-47.982-21.482-47.982-47.982s21.482-47.982 47.982-47.982" class="B H"/><circle cx="256.048" cy="191.929" r="151.946" class="C"/><circle cx="376.007" cy="71.972" r="31.988" class="E"/><use xlink:href="#D" class="G H"/><circle cx="256.048" cy="191.929" r="119.959" class="B"/><g class="D"><use xlink:href="#E" class="H"/><use xlink:href="#F"/></g><use xlink:href="#G" class="G"/><use xlink:href="#H" class="D"/><path d="M8.146 446.21h71.973v49.6H8.146z" class="E"/><g class="F"><use xlink:href="#I"/><path d="M112.649 511.854l-.432-71.863h31.878v15.68h-16.104l.338 56.089z"/></g><g class="B"><use xlink:href="#B" y="-63.973"/><use xlink:href="#B" y="-31.986"/><use xlink:href="#B" x="71.969" y="-431.837"/></g><path d="M181.62 173.479l-11.087-11.087 31.989-31.989 11.087 11.087zm.008 55.981l-11.087-11.087L274.5 114.415l11.087 11.087zm79.962-15.987l-11.087-11.087 23.99-23.99 11.087 11.087zm.005 55.974l-11.087-11.087 79.966-79.966 11.087 11.087z" class="F"/><path d="M56.285 255.901h15.68v15.994h-15.68zm0 23.99h15.68v15.994h-15.68zm0 23.99h15.68v15.994h-15.68z" class="B"/><g class="F"><path d="M376.007 455.671h16.104l-.338 56.089 15.679.094.433-71.863h-31.878z"/><use xlink:href="#J"/></g></g><path d="M88.277 0h15.68v15.994h-15.68z" class="C"/><use xlink:href="#B" class="B"/><path d="M32.137 63.973h447.83v327.881H32.137z" class="D"/><path d="M32.137 63.973h223.915v327.881H32.137z" class="E"/><use xlink:href="#C" class="C"/><path d="M399.998 143.946c26.5 0 47.982 21.482 47.982 47.982s-21.483 47.982-47.982 47.982m-287.892-.001c-26.5 0-47.982-21.482-47.982-47.982s21.482-47.982 47.982-47.982" class="B"/><circle cx="256.048" cy="191.929" r="151.946" class="C"/><circle cx="376.007" cy="71.972" r="31.988" class="E"/><use xlink:href="#D" class="G"/><circle cx="256.048" cy="191.929" r="119.959" class="B"/><g class="D"><use xlink:href="#E"/><use xlink:href="#F"/></g><use xlink:href="#G" class="G"/><use xlink:href="#H" class="D"/><path d="M8.146 446.21h71.973v49.6H8.146z" class="E"/><g class="F"><use xlink:href="#I"/><path d="M112.649 511.854l-.432-71.863h31.878v15.68h-16.104l.338 56.089z"/></g><g class="B"><use xlink:href="#B" y="-63.973"/><use xlink:href="#B" y="-31.986"/><use xlink:href="#B" x="71.969" y="-431.837"/></g><path d="M181.62 173.479l-11.087-11.087 31.989-31.989 11.087 11.087zm.008 55.981l-11.087-11.087L274.5 114.415l11.087 11.087zm79.962-15.987l-11.087-11.087 23.99-23.99 11.087 11.087zm.005 55.974l-11.087-11.087 79.966-79.966 11.087 11.087z" class="F"/><path d="M56.285 255.901h15.68v15.994h-15.68zm0 23.99h15.68v15.994h-15.68zm0 23.99h15.68v15.994h-15.68z" class="B"/><g class="F"><path d="M376.007 455.671h16.104l-.338 56.089 15.679.094.433-71.863h-31.878z"/><use xlink:href="#J"/></g><defs ><path id="B" d="M296.042 495.966h15.994v15.68h-15.994z"/><path id="C" d="M354.158 319.879h-16.129c-23.65 15.184-51.784 23.991-81.977 23.991s-58.327-8.807-81.977-23.991h-16.129c-82.733 0-149.801 67.068-149.801 149.802v42.126l495.814.192v-42.318c0-82.734-67.069-149.802-149.801-149.802z"/><path id="D" d="M256.052,343.87c-83.915,0-151.942-68.027-151.942-151.942S172.137,39.985,256.052,39.985"/><path id="E" d="M487.965 399.849c-26.501 0-47.982 21.482-47.982 47.982s21.482 47.982 47.982 47.982h15.994c0 0 4.75-77.437-15.994-95.964"/><path id="F" d="M392.002 327.877l-47.982-7.997c-44.907 25.93-87.967 23.991-87.967 23.991v39.985c-.001-.001 74.544 4.956 135.949-55.979z"/><path id="G" d="M232.062 383.855v23.991h103.961v103.961H8.146v-42.234c0-66.723 43.654-123.25 103.959-142.578 0 0 44.985 53.861 119.957 56.86z"/><path id="H" d="M112.106 327.877l55.979-7.997c52.481 27.489 87.967 23.991 87.967 23.991v39.985c0-.001-82.541 4.956-143.946-55.979z"/><path id="I" d="M256.052 319.722c-70.466 0-127.795-57.329-127.795-127.795S185.586 64.134 256.052 64.134s127.795 57.328 127.795 127.794-57.329 127.794-127.795 127.794zm0-239.909c-61.82 0-112.115 50.295-112.115 112.114s50.295 112.115 112.115 112.115 112.115-50.295 112.115-112.115S317.873 79.813 256.052 79.813z"/><path id="J" d="M511.899 471.16l.001-.156c-.021-30.798-8.854-59.571-24.092-83.95V56.136h-75.266c-6.137-14.102-20.199-23.991-36.534-23.991-16.18 0-30.128 9.705-36.355 23.595-25.108-15.463-53.791-23.595-83.6-23.595-30.843 0-59.666 8.793-84.113 23.991h-59.833v15.68h38.694c-19.777 17.352-35.249 39.496-44.58 64.602a54.17 54.17 0 0 0-2.267.29V23.991h-15.68v117.47c-18.89 8.957-31.988 28.208-31.988 50.465 0 28.792 21.912 52.558 49.935 55.509 9.373 25.22 24.94 47.452 44.845 64.838-11.183.578-22.25 2.301-32.997 5.184a157.6 157.6 0 0 0-8.415 2.51c-27.616 9.081-51.405 25.155-69.677 45.884V71.816h40.142v-15.68h-55.82v330.801C8.962 411.573.306 440.521.306 471.07L.1 511.767l15.68.079.042-8.194H87.96v-63.661H19.397c1.226-5.553 2.773-10.996 4.628-16.308h32.103v-15.68H30.565c2.73-5.585 5.8-10.985 9.22-16.151h.191v-.299c16.613-24.961 41.028-44.603 70.558-55.281 13.066 10.445 59.983 45.358 113.686 54.361v25.053h103.961v96.121h15.68V400.006H239.9v-8.961c5.345.425 10.73.65 16.151.65 52.797 0 102.432-20.342 140.019-57.304 31.38 9.95 58.121 30.428 76.057 57.268v.193h.128l.419.637c-23.368 6.666-40.532 28.197-40.532 53.675 0 30.78 25.041 55.821 55.821 55.821h7.657l-.187 9.972 16.429.043.037-40.84zm-439.62-15.489v32.302H15.901l.045-8.907 40.067.594.233-15.677-40.028-.594a144.74 144.74 0 0 1 .617-7.719H72.28v.001zM376.007 47.825c13.315 0 24.149 10.833 24.149 24.149s-10.833 24.148-24.149 24.148-24.149-10.833-24.149-24.148 10.834-24.149 24.149-24.149zM71.965 191.927c0-18.276 12.281-33.728 29.021-38.563-3.073 12.356-4.715 25.27-4.715 38.563a159.58 159.58 0 0 0 4.715 38.563c-16.74-4.835-29.021-20.286-29.021-38.563zm39.985 0c0-79.459 64.644-144.103 144.103-144.103 28.784 0 56.394 8.416 80.132 24.341.105 21.807 17.822 39.525 39.629 39.63 15.925 23.737 24.342 51.347 24.342 80.132 0 79.459-64.645 144.103-144.103 144.103S111.95 271.386 111.95 191.927zm299.21-38.55c16.719 4.849 28.981 20.29 28.981 38.551 0 18.276-12.281 33.728-29.022 38.563 3.073-12.354 4.716-25.27 4.716-38.563.001-13.139-1.585-26.059-4.675-38.551zM248.213 351.515v24.325c-42.428-1.764-82.272-17.836-113.982-45.907 8.267-1.46 16.682-2.216 25.147-2.216h12.564c22.361 13.905 48.386 22.445 76.271 23.798zm15.679 24.326v-24.325a158.72 158.72 0 0 0 76.273-23.796h12.665a143.72 143.72 0 0 1 25.065 2.197c-31.712 28.081-71.562 44.158-114.003 45.924zm97.174-63.589c19.892-17.383 35.449-39.606 44.82-64.815 28.023-2.951 49.935-26.717 49.935-55.509 0-28.772-21.882-52.525-49.878-55.502-3.611-9.746-8.19-19.149-13.702-28.098 13.89-6.227 23.595-20.174 23.595-36.355 0-.052-.004-.105-.004-.157h56.297v294.212c-27.476-31.155-66.922-51.513-111.063-53.776zm126.899 174.054c-22.134 0-40.142-18.007-40.142-40.142 0-19.72 14.297-36.151 33.066-39.504 5.28 10.447 9.316 21.621 11.919 33.332h-20.837v15.68h23.416c.54 5.017.827 10.11.833 15.268l-.296 15.368h-7.959v-.002z"/></defs></svg>